<mxfile host="app.diagrams.net" modified="2022-11-01T14:35:20.249Z" agent="5.0 (Windows NT 10.0; Win64; x64) AppleWebKit/537.36 (KHTML, like Gecko) Chrome/106.0.0.0 Safari/537.36" etag="A4qX4sdTagP41a2pOHIv" version="20.5.1" type="github">
  <diagram id="SY1goNuAaiUfTzUY2XCb" name="第 1 页">
    <mxGraphModel dx="898" dy="430" grid="0" gridSize="10" guides="1" tooltips="1" connect="1" arrows="1" fold="1" page="1" pageScale="1" pageWidth="4681" pageHeight="3300" math="0" shadow="0">
      <root>
        <mxCell id="0" />
        <mxCell id="1" parent="0" />
        <mxCell id="72zUx5wuOFbB_23FDIcq-1" value="&lt;div&gt;Sensors inputs from&amp;nbsp;&lt;/div&gt;&lt;div&gt;Virtual Reality&amp;nbsp;&lt;/div&gt;" style="rounded=1;whiteSpace=wrap;html=1;" vertex="1" parent="1">
          <mxGeometry x="281" y="167" width="120" height="60" as="geometry" />
        </mxCell>
        <mxCell id="72zUx5wuOFbB_23FDIcq-3" value="&lt;font style=&quot;font-size: 23px;&quot;&gt;IL&lt;/font&gt;" style="ellipse;whiteSpace=wrap;html=1;aspect=fixed;" vertex="1" parent="1">
          <mxGeometry x="301" y="57" width="80" height="80" as="geometry" />
        </mxCell>
      </root>
    </mxGraphModel>
  </diagram>
</mxfile>
